<mxfile host="app.diagrams.net" modified="2023-11-22T02:08:38.174Z" agent="Mozilla/5.0 (Windows NT 10.0; Win64; x64) AppleWebKit/537.36 (KHTML, like Gecko) Chrome/119.0.0.0 Safari/537.36" version="22.1.3" etag="_6RlNZj1wB_BIhz7s_SJ" type="github">
  <diagram name="Halaman-1" id="sD6_e4r_dTZGH503CrBs">
    <mxGraphModel>
      <root>
        <mxCell id="0" />
        <mxCell id="1" parent="0" />
      </root>
    </mxGraphModel>
  </diagram>
</mxfile>
